<svg version="1.1" viewBox="0.0 0.0 600.0 371.0" fill="none" stroke="none" stroke-linecap="square" stroke-miterlimit="10" width="600" height="371" xmlns:xlink="http://www.w3.org/1999/xlink" xmlns="http://www.w3.org/2000/svg"><path fill="#ffffff" d="M0 0L600.0 0L600.0 371.0L0 371.0L0 0Z" fill-rule="nonzero"/><path stroke="#333333" stroke-width="1.0" stroke-linecap="butt" d="M45.5 332.5L581.5 332.5" fill-rule="nonzero"/><path stroke="#cccccc" stroke-width="1.0" stroke-linecap="butt" d="M45.5 274.5L581.5 274.5" fill-rule="nonzero"/><path stroke="#cccccc" stroke-width="1.0" stroke-linecap="butt" d="M45.5 217.5L581.5 217.5" fill-rule="nonzero"/><path stroke="#cccccc" stroke-width="1.0" stroke-linecap="butt" d="M45.5 160.5L581.5 160.5" fill-rule="nonzero"/><path stroke="#cccccc" stroke-width="1.0" stroke-linecap="butt" d="M45.5 102.5L581.5 102.5" fill-rule="nonzero"/><clipPath id="id_0"><path d="M45.55 88.28333L581.45 88.28333L581.45 332.45L45.55 332.45L45.55 88.28333Z" clip-rule="nonzero"/></clipPath><path stroke="#000000" stroke-width="0.0" stroke-linecap="butt" stroke-opacity="0.0" clip-path="url(#id_0)" d="M127.0 332.0L102.0 332.0L102.0 190.0C102.0 188.89543 102.89543 188.0 104.0 188.0L125.0 188.0C126.10457 188.0 127.0 188.89543 127.0 190.0Z" fill-rule="nonzero"/><path fill="#4285f4" clip-path="url(#id_0)" d="M127.0 332.0L102.0 332.0L102.0 190.0C102.0 188.89543 102.89543 188.0 104.0 188.0L125.0 188.0C126.10457 188.0 127.0 188.89543 127.0 190.0Z" fill-rule="nonzero"/><path stroke="#000000" stroke-width="0.0" stroke-linecap="butt" stroke-opacity="0.0" clip-path="url(#id_0)" d="M287.0 332.0L262.0 332.0L262.0 210.0C262.0 208.89543 262.89542 208.0 264.0 208.0L285.0 208.0C286.10458 208.0 287.0 208.89543 287.0 210.0Z" fill-rule="nonzero"/><path fill="#4285f4" clip-path="url(#id_0)" d="M287.0 332.0L262.0 332.0L262.0 210.0C262.0 208.89543 262.89542 208.0 264.0 208.0L285.0 208.0C286.10458 208.0 287.0 208.89543 287.0 210.0Z" fill-rule="nonzero"/><path stroke="#000000" stroke-width="0.0" stroke-linecap="butt" stroke-opacity="0.0" clip-path="url(#id_0)" d="M446.0 332.0L421.0 332.0L421.0 272.0C421.0 270.89542 421.89542 270.0 423.0 270.0L444.0 270.0C445.10458 270.0 446.0 270.89542 446.0 272.0Z" fill-rule="nonzero"/><path fill="#4285f4" clip-path="url(#id_0)" d="M446.0 332.0L421.0 332.0L421.0 272.0C421.0 270.89542 421.89542 270.0 423.0 270.0L444.0 270.0C445.10458 270.0 446.0 270.89542 446.0 272.0Z" fill-rule="nonzero"/><path stroke="#000000" stroke-width="0.0" stroke-linecap="butt" stroke-opacity="0.0" clip-path="url(#id_0)" d="M153.0 332.0L128.0 332.0L128.0 103.0C128.0 101.89543 128.89543 101.0 130.0 101.0L151.0 101.0C152.10457 101.0 153.0 101.89543 153.0 103.0Z" fill-rule="nonzero"/><path fill="#ea4335" clip-path="url(#id_0)" d="M153.0 332.0L128.0 332.0L128.0 103.0C128.0 101.89543 128.89543 101.0 130.0 101.0L151.0 101.0C152.10457 101.0 153.0 101.89543 153.0 103.0Z" fill-rule="nonzero"/><path stroke="#000000" stroke-width="0.0" stroke-linecap="butt" stroke-opacity="0.0" clip-path="url(#id_0)" d="M313.0 332.0L288.0 332.0L288.0 180.0C288.0 178.89543 288.89542 178.0 290.0 178.0L311.0 178.0C312.10458 178.0 313.0 178.89543 313.0 180.0Z" fill-rule="nonzero"/><path fill="#ea4335" clip-path="url(#id_0)" d="M313.0 332.0L288.0 332.0L288.0 180.0C288.0 178.89543 288.89542 178.0 290.0 178.0L311.0 178.0C312.10458 178.0 313.0 178.89543 313.0 180.0Z" fill-rule="nonzero"/><path stroke="#000000" stroke-width="0.0" stroke-linecap="butt" stroke-opacity="0.0" clip-path="url(#id_0)" d="M472.0 332.0L447.0 332.0L447.0 264.0C447.0 262.89542 447.89542 262.0 449.0 262.0L470.0 262.0C471.10458 262.0 472.0 262.89542 472.0 264.0Z" fill-rule="nonzero"/><path fill="#ea4335" clip-path="url(#id_0)" d="M472.0 332.0L447.0 332.0L447.0 264.0C447.0 262.89542 447.89542 262.0 449.0 262.0L470.0 262.0C471.10458 262.0 472.0 262.89542 472.0 264.0Z" fill-rule="nonzero"/><path stroke="#000000" stroke-width="0.0" stroke-linecap="butt" stroke-opacity="0.0" clip-path="url(#id_0)" d="M179.0 332.0L154.0 332.0L154.0 250.0C154.0 248.89543 154.89543 248.0 156.0 248.0L177.0 248.0C178.10457 248.0 179.0 248.89543 179.0 250.0Z" fill-rule="nonzero"/><path fill="#fbbc04" clip-path="url(#id_0)" d="M179.0 332.0L154.0 332.0L154.0 250.0C154.0 248.89543 154.89543 248.0 156.0 248.0L177.0 248.0C178.10457 248.0 179.0 248.89543 179.0 250.0Z" fill-rule="nonzero"/><path stroke="#000000" stroke-width="0.0" stroke-linecap="butt" stroke-opacity="0.0" clip-path="url(#id_0)" d="M339.0 332.0L314.0 332.0L314.0 279.0C314.0 277.89542 314.89542 277.0 316.0 277.0L337.0 277.0C338.10458 277.0 339.0 277.89542 339.0 279.0Z" fill-rule="nonzero"/><path fill="#fbbc04" clip-path="url(#id_0)" d="M339.0 332.0L314.0 332.0L314.0 279.0C314.0 277.89542 314.89542 277.0 316.0 277.0L337.0 277.0C338.10458 277.0 339.0 277.89542 339.0 279.0Z" fill-rule="nonzero"/><path stroke="#000000" stroke-width="0.0" stroke-linecap="butt" stroke-opacity="0.0" clip-path="url(#id_0)" d="M498.0 332.0L473.0 332.0L473.0 320.0C473.0 318.89542 473.89542 318.0 475.0 318.0L496.0 318.0C497.10458 318.0 498.0 318.89542 498.0 320.0Z" fill-rule="nonzero"/><path fill="#fbbc04" clip-path="url(#id_0)" d="M498.0 332.0L473.0 332.0L473.0 320.0C473.0 318.89542 473.89542 318.0 475.0 318.0L496.0 318.0C497.10458 318.0 498.0 318.89542 498.0 320.0Z" fill-rule="nonzero"/><path stroke="#000000" stroke-width="0.0" stroke-linecap="butt" stroke-opacity="0.0" clip-path="url(#id_0)" d="M205.0 332.0L180.0 332.0L180.0 247.0C180.0 245.89543 180.89543 245.0 182.0 245.0L203.0 245.0C204.10457 245.0 205.0 245.89543 205.0 247.0Z" fill-rule="nonzero"/><path fill="#34a853" clip-path="url(#id_0)" d="M205.0 332.0L180.0 332.0L180.0 247.0C180.0 245.89543 180.89543 245.0 182.0 245.0L203.0 245.0C204.10457 245.0 205.0 245.89543 205.0 247.0Z" fill-rule="nonzero"/><path stroke="#000000" stroke-width="0.0" stroke-linecap="butt" stroke-opacity="0.0" clip-path="url(#id_0)" d="M365.0 332.0L340.0 332.0L340.0 278.0C340.0 276.89542 340.89542 276.0 342.0 276.0L363.0 276.0C364.10458 276.0 365.0 276.89542 365.0 278.0Z" fill-rule="nonzero"/><path fill="#34a853" clip-path="url(#id_0)" d="M365.0 332.0L340.0 332.0L340.0 278.0C340.0 276.89542 340.89542 276.0 342.0 276.0L363.0 276.0C364.10458 276.0 365.0 276.89542 365.0 278.0Z" fill-rule="nonzero"/><path stroke="#000000" stroke-width="0.0" stroke-linecap="butt" stroke-opacity="0.0" clip-path="url(#id_0)" d="M524.0 332.0L499.0 332.0L499.0 320.0C499.0 318.89542 499.89542 318.0 501.0 318.0L522.0 318.0C523.10455 318.0 524.0 318.89542 524.0 320.0Z" fill-rule="nonzero"/><path fill="#34a853" clip-path="url(#id_0)" d="M524.0 332.0L499.0 332.0L499.0 320.0C499.0 318.89542 499.89542 318.0 501.0 318.0L522.0 318.0C523.10455 318.0 524.0 318.89542 524.0 320.0Z" fill-rule="nonzero"/><path fill="#000000" d="M33.05 332.21564Q33.05 330.6844 33.3625 329.7625Q33.675 328.825 34.284374 328.325Q34.909374 327.825 35.846874 327.825Q36.534374 327.825 37.05 328.10626Q37.58125 328.3875 37.925 328.91876Q38.26875 329.4344 38.45625 330.1844Q38.64375 330.9344 38.64375 332.21564Q38.64375 333.73126 38.33125 334.65314Q38.034374 335.575 37.409374 336.09064Q36.8 336.59064 35.846874 336.59064Q34.6125 336.59064 33.89375 335.7Q33.05 334.6375 33.05 332.21564ZM34.128124 332.21564Q34.128124 334.325 34.628124 335.02814Q35.128124 335.73126 35.846874 335.73126Q36.58125 335.73126 37.065624 335.02814Q37.565624 334.325 37.565624 332.21564Q37.565624 330.09064 37.065624 329.40314Q36.58125 328.7 35.83125 328.7Q35.1125 328.7 34.675 329.3094Q34.128124 330.09064 34.128124 332.21564Z" fill-rule="nonzero"/><path fill="#000000" d="M24.596874 277.9834L24.596874 278.99902L18.909374 278.99902Q18.909374 278.62402 19.034374 278.26465Q19.253124 277.68652 19.721874 277.12402Q20.20625 276.56152 21.1125 275.82715Q22.51875 274.6709 23.003124 273.99902Q23.503124 273.32715 23.503124 272.7334Q23.503124 272.1084 23.05 271.68652Q22.596874 271.24902 21.878124 271.24902Q21.1125 271.24902 20.659374 271.70215Q20.20625 272.15527 20.190624 272.96777L19.1125 272.8584Q19.221874 271.63965 19.940624 271.01465Q20.675 270.37402 21.909374 270.37402Q23.14375 270.37402 23.8625 271.06152Q24.58125 271.74902 24.58125 272.76465Q24.58125 273.28027 24.3625 273.78027Q24.159374 274.26465 23.659374 274.82715Q23.175 275.37402 22.05 276.32715Q21.096874 277.12402 20.815624 277.4209Q20.55 277.70215 20.378124 277.9834L24.596874 277.9834ZM26.05 274.76465Q26.05 273.2334 26.3625 272.31152Q26.675 271.37402 27.284374 270.87402Q27.909374 270.37402 28.846874 270.37402Q29.534374 270.37402 30.05 270.65527Q30.58125 270.93652 30.925 271.46777Q31.26875 271.9834 31.45625 272.7334Q31.64375 273.4834 31.64375 274.76465Q31.64375 276.28027 31.33125 277.20215Q31.034374 278.12402 30.409374 278.63965Q29.8 279.13965 28.846874 279.13965Q27.6125 279.13965 26.89375 278.24902Q26.05 277.18652 26.05 274.76465ZM27.128124 274.76465Q27.128124 276.87402 27.628124 277.57715Q28.128124 278.28027 28.846874 278.28027Q29.58125 278.28027 30.065624 277.57715Q30.565624 276.87402 30.565624 274.76465Q30.565624 272.63965 30.065624 271.95215Q29.58125 271.24902 28.83125 271.24902Q28.1125 271.24902 27.675 271.8584Q27.128124 272.63965 27.128124 274.76465ZM33.05 274.76465Q33.05 273.2334 33.3625 272.31152Q33.675 271.37402 34.284374 270.87402Q34.909374 270.37402 35.846874 270.37402Q36.534374 270.37402 37.05 270.65527Q37.58125 270.93652 37.925 271.46777Q38.26875 271.9834 38.45625 272.7334Q38.64375 273.4834 38.64375 274.76465Q38.64375 276.28027 38.33125 277.20215Q38.034374 278.12402 37.409374 278.63965Q36.8 279.13965 35.846874 279.13965Q34.6125 279.13965 33.89375 278.24902Q33.05 277.18652 33.05 274.76465ZM34.128124 274.76465Q34.128124 276.87402 34.628124 277.57715Q35.128124 278.28027 35.846874 278.28027Q36.58125 278.28027 37.065624 277.57715Q37.565624 276.87402 37.565624 274.76465Q37.565624 272.63965 37.065624 271.95215Q36.58125 271.24902 35.83125 271.24902Q35.1125 271.24902 34.675 271.8584Q34.128124 272.63965 34.128124 274.76465Z" fill-rule="nonzero"/><path fill="#000000" d="M22.425 221.54803L22.425 219.48553L18.70625 219.48553L18.70625 218.51678L22.628124 212.95428L23.4875 212.95428L23.4875 218.51678L24.64375 218.51678L24.64375 219.48553L23.4875 219.48553L23.4875 221.54803L22.425 221.54803ZM22.425 218.51678L22.425 214.65741L19.7375 218.51678L22.425 218.51678ZM26.05 217.31366Q26.05 215.78241 26.3625 214.86053Q26.675 213.92303 27.284374 213.42303Q27.909374 212.92303 28.846874 212.92303Q29.534374 212.92303 30.05 213.20428Q30.58125 213.48553 30.925 214.01678Q31.26875 214.53241 31.45625 215.28241Q31.64375 216.03241 31.64375 217.31366Q31.64375 218.82928 31.33125 219.75116Q31.034374 220.67303 30.409374 221.18866Q29.8 221.68866 28.846874 221.68866Q27.6125 221.68866 26.89375 220.79803Q26.05 219.73553 26.05 217.31366ZM27.128124 217.31366Q27.128124 219.42303 27.628124 220.12616Q28.128124 220.82928 28.846874 220.82928Q29.58125 220.82928 30.065624 220.12616Q30.565624 219.42303 30.565624 217.31366Q30.565624 215.18866 30.065624 214.50116Q29.58125 213.79803 28.83125 213.79803Q28.1125 213.79803 27.675 214.40741Q27.128124 215.18866 27.128124 217.31366ZM33.05 217.31366Q33.05 215.78241 33.3625 214.86053Q33.675 213.92303 34.284374 213.42303Q34.909374 212.92303 35.846874 212.92303Q36.534374 212.92303 37.05 213.20428Q37.58125 213.48553 37.925 214.01678Q38.26875 214.53241 38.45625 215.28241Q38.64375 216.03241 38.64375 217.31366Q38.64375 218.82928 38.33125 219.75116Q38.034374 220.67303 37.409374 221.18866Q36.8 221.68866 35.846874 221.68866Q34.6125 221.68866 33.89375 220.79803Q33.05 219.73553 33.05 217.31366ZM34.128124 217.31366Q34.128124 219.42303 34.628124 220.12616Q35.128124 220.82928 35.846874 220.82928Q36.58125 220.82928 37.065624 220.12616Q37.565624 219.42303 37.565624 217.31366Q37.565624 215.18866 37.065624 214.50116Q36.58125 213.79803 35.83125 213.79803Q35.1125 213.79803 34.675 214.40741Q34.128124 215.18866 34.128124 217.31366Z" fill-rule="nonzero"/><path fill="#000000" d="M24.51875 157.61269L23.471874 157.69081Q23.33125 157.06581 23.08125 156.78456Q22.64375 156.33144 22.01875 156.33144Q21.51875 156.33144 21.128124 156.61269Q20.64375 156.98769 20.346874 157.69081Q20.065624 158.37831 20.05 159.65956Q20.425 159.08144 20.971874 158.80019Q21.534374 158.51894 22.14375 158.51894Q23.190624 158.51894 23.925 159.30019Q24.675 160.08144 24.675 161.30019Q24.675 162.11269 24.315624 162.81581Q23.971874 163.50331 23.3625 163.87831Q22.753124 164.23769 21.9875 164.23769Q20.659374 164.23769 19.83125 163.26894Q19.003124 162.30019 19.003124 160.08144Q19.003124 157.58144 19.925 156.45644Q20.721874 155.47206 22.08125 155.47206Q23.096874 155.47206 23.7375 156.05019Q24.39375 156.61269 24.51875 157.61269ZM20.221874 161.31581Q20.221874 161.86269 20.440624 162.36269Q20.675 162.84706 21.08125 163.11269Q21.503124 163.37831 21.971874 163.37831Q22.628124 163.37831 23.1125 162.84706Q23.596874 162.30019 23.596874 161.37831Q23.596874 160.48769 23.1125 159.97206Q22.64375 159.45644 21.925 159.45644Q21.20625 159.45644 20.70625 159.97206Q20.221874 160.48769 20.221874 161.31581ZM26.05 159.86269Q26.05 158.33144 26.3625 157.40956Q26.675 156.47206 27.284374 155.97206Q27.909374 155.47206 28.846874 155.47206Q29.534374 155.47206 30.05 155.75331Q30.58125 156.03456 30.925 156.56581Q31.26875 157.08144 31.45625 157.83144Q31.64375 158.58144 31.64375 159.86269Q31.64375 161.37831 31.33125 162.30019Q31.034374 163.22206 30.409374 163.73769Q29.8 164.23769 28.846874 164.23769Q27.6125 164.23769 26.89375 163.34706Q26.05 162.28456 26.05 159.86269ZM27.128124 159.86269Q27.128124 161.97206 27.628124 162.67519Q28.128124 163.37831 28.846874 163.37831Q29.58125 163.37831 30.065624 162.67519Q30.565624 161.97206 30.565624 159.86269Q30.565624 157.73769 30.065624 157.05019Q29.58125 156.34706 28.83125 156.34706Q28.1125 156.34706 27.675 156.95644Q27.128124 157.73769 27.128124 159.86269ZM33.05 159.86269Q33.05 158.33144 33.3625 157.40956Q33.675 156.47206 34.284374 155.97206Q34.909374 155.47206 35.846874 155.47206Q36.534374 155.47206 37.05 155.75331Q37.58125 156.03456 37.925 156.56581Q38.26875 157.08144 38.45625 157.83144Q38.64375 158.58144 38.64375 159.86269Q38.64375 161.37831 38.33125 162.30019Q38.034374 163.22206 37.409374 163.73769Q36.8 164.23769 35.846874 164.23769Q34.6125 164.23769 33.89375 163.34706Q33.05 162.28456 33.05 159.86269ZM34.128124 159.86269Q34.128124 161.97206 34.628124 162.67519Q35.128124 163.37831 35.846874 163.37831Q36.58125 163.37831 37.065624 162.67519Q37.565624 161.97206 37.565624 159.86269Q37.565624 157.73769 37.065624 157.05019Q36.58125 156.34706 35.83125 156.34706Q35.1125 156.34706 34.675 156.95644Q34.128124 157.73769 34.128124 159.86269Z" fill-rule="nonzero"/><path fill="#000000" d="M20.675 101.98983Q20.01875 101.73983 19.690624 101.30233Q19.378124 100.849205 19.378124 100.23983Q19.378124 99.30233 20.05 98.661705Q20.7375 98.02108 21.846874 98.02108Q22.971874 98.02108 23.659374 98.67733Q24.346874 99.33358 24.346874 100.27108Q24.346874 100.86483 24.034374 101.30233Q23.721874 101.73983 23.08125 101.98983Q23.878124 102.23983 24.284374 102.817955Q24.690624 103.39608 24.690624 104.192955Q24.690624 105.286705 23.909374 106.036705Q23.14375 106.786705 21.8625 106.786705Q20.596874 106.786705 19.815624 106.036705Q19.034374 105.286705 19.034374 104.161705Q19.034374 103.317955 19.45625 102.755455Q19.89375 102.192955 20.675 101.98983ZM20.45625 100.192955Q20.45625 100.80233 20.846874 101.192955Q21.253124 101.58358 21.878124 101.58358Q22.4875 101.58358 22.878124 101.20858Q23.26875 100.817955 23.26875 100.255455Q23.26875 99.67733 22.8625 99.286705Q22.45625 98.880455 21.8625 98.880455Q21.253124 98.880455 20.846874 99.27108Q20.45625 99.661705 20.45625 100.192955ZM20.128124 104.161705Q20.128124 104.61483 20.33125 105.036705Q20.55 105.45858 20.971874 105.692955Q21.39375 105.92733 21.878124 105.92733Q22.628124 105.92733 23.1125 105.442955Q23.6125 104.95858 23.6125 104.20858Q23.6125 103.442955 23.1125 102.942955Q22.6125 102.442955 21.846874 102.442955Q21.096874 102.442955 20.6125 102.942955Q20.128124 103.42733 20.128124 104.161705ZM26.05 102.411705Q26.05 100.880455 26.3625 99.95858Q26.675 99.02108 27.284374 98.52108Q27.909374 98.02108 28.846874 98.02108Q29.534374 98.02108 30.05 98.30233Q30.58125 98.58358 30.925 99.11483Q31.26875 99.630455 31.45625 100.380455Q31.64375 101.130455 31.64375 102.411705Q31.64375 103.92733 31.33125 104.849205Q31.034374 105.77108 30.409374 106.286705Q29.8 106.786705 28.846874 106.786705Q27.6125 106.786705 26.89375 105.89608Q26.05 104.83358 26.05 102.411705ZM27.128124 102.411705Q27.128124 104.52108 27.628124 105.224205Q28.128124 105.92733 28.846874 105.92733Q29.58125 105.92733 30.065624 105.224205Q30.565624 104.52108 30.565624 102.411705Q30.565624 100.286705 30.065624 99.599205Q29.58125 98.89608 28.83125 98.89608Q28.1125 98.89608 27.675 99.505455Q27.128124 100.286705 27.128124 102.411705ZM33.05 102.411705Q33.05 100.880455 33.3625 99.95858Q33.675 99.02108 34.284374 98.52108Q34.909374 98.02108 35.846874 98.02108Q36.534374 98.02108 37.05 98.30233Q37.58125 98.58358 37.925 99.11483Q38.26875 99.630455 38.45625 100.380455Q38.64375 101.130455 38.64375 102.411705Q38.64375 103.92733 38.33125 104.849205Q38.034374 105.77108 37.409374 106.286705Q36.8 106.786705 35.846874 106.786705Q34.6125 106.786705 33.89375 105.89608Q33.05 104.83358 33.05 102.411705ZM34.128124 102.411705Q34.128124 104.52108 34.628124 105.224205Q35.128124 105.92733 35.846874 105.92733Q36.58125 105.92733 37.065624 105.224205Q37.565624 104.52108 37.565624 102.411705Q37.565624 100.286705 37.065624 99.599205Q36.58125 98.89608 35.83125 98.89608Q35.1125 98.89608 34.675 99.505455Q34.128124 100.286705 34.128124 102.411705Z" fill-rule="nonzero"/><path fill="#000000" d="M145.40485 349.45L145.40485 347.3875L141.6861 347.3875L141.6861 346.41876L145.60797 340.85626L146.46735 340.85626L146.46735 346.41876L147.6236 346.41876L147.6236 347.3875L146.46735 347.3875L146.46735 349.45L145.40485 349.45ZM145.40485 346.41876L145.40485 342.5594L142.71735 346.41876L145.40485 346.41876ZM150.65485 344.79376Q149.9986 344.54376 149.67047 344.10626Q149.35797 343.65314 149.35797 343.04376Q149.35797 342.10626 150.02985 341.46564Q150.71735 340.825 151.82672 340.825Q152.95172 340.825 153.63922 341.48126Q154.32672 342.1375 154.32672 343.075Q154.32672 343.66876 154.01422 344.10626Q153.70172 344.54376 153.0611 344.79376Q153.85797 345.04376 154.26422 345.6219Q154.67047 346.2 154.67047 346.9969Q154.67047 348.09064 153.88922 348.84064Q153.1236 349.59064 151.84235 349.59064Q150.57672 349.59064 149.79547 348.84064Q149.01422 348.09064 149.01422 346.96564Q149.01422 346.1219 149.4361 345.5594Q149.8736 344.9969 150.65485 344.79376ZM150.4361 342.9969Q150.4361 343.60626 150.82672 343.9969Q151.23297 344.3875 151.85797 344.3875Q152.46735 344.3875 152.85797 344.0125Q153.2486 343.6219 153.2486 343.0594Q153.2486 342.48126 152.84235 342.09064Q152.4361 341.6844 151.84235 341.6844Q151.23297 341.6844 150.82672 342.075Q150.4361 342.46564 150.4361 342.9969ZM150.10797 346.96564Q150.10797 347.41876 150.3111 347.84064Q150.52985 348.2625 150.95172 348.4969Q151.3736 348.73126 151.85797 348.73126Q152.60797 348.73126 153.09235 348.2469Q153.59235 347.7625 153.59235 347.0125Q153.59235 346.2469 153.09235 345.7469Q152.59235 345.2469 151.82672 345.2469Q151.07672 345.2469 150.59235 345.7469Q150.10797 346.23126 150.10797 346.96564ZM156.02985 345.21564Q156.02985 343.6844 156.34235 342.7625Q156.65485 341.825 157.26422 341.325Q157.88922 340.825 158.82672 340.825Q159.51422 340.825 160.02985 341.10626Q160.5611 341.3875 160.90485 341.91876Q161.2486 342.4344 161.4361 343.1844Q161.6236 343.9344 161.6236 345.21564Q161.6236 346.73126 161.3111 347.65314Q161.01422 348.575 160.38922 349.09064Q159.77985 349.59064 158.82672 349.59064Q157.59235 349.59064 156.8736 348.7Q156.02985 347.6375 156.02985 345.21564ZM157.10797 345.21564Q157.10797 347.325 157.60797 348.02814Q158.10797 348.73126 158.82672 348.73126Q159.5611 348.73126 160.04547 348.02814Q160.54547 347.325 160.54547 345.21564Q160.54547 343.09064 160.04547 342.40314Q159.5611 341.7 158.8111 341.7Q158.09235 341.7 157.65485 342.3094Q157.10797 343.09064 157.10797 345.21564ZM163.32672 342.075L163.32672 340.85626L164.38922 340.85626L164.38922 342.075L163.32672 342.075ZM163.32672 349.45L163.32672 343.23126L164.38922 343.23126L164.38922 349.45L163.32672 349.45Z" fill-rule="nonzero"/><path fill="#000000" d="M300.0625 341.98126L300.0625 340.96564L305.625 340.96564L305.625 341.79376Q304.8125 342.66876 304.0 344.1219Q303.20312 345.5594 302.76562 347.09064Q302.4375 348.16876 302.35938 349.45L301.26562 349.45Q301.28125 348.4344 301.65625 346.9969Q302.04688 345.5594 302.75 344.23126Q303.46875 342.90314 304.28125 341.98126L300.0625 341.98126ZM312.54688 348.4344L312.54688 349.45L306.85938 349.45Q306.85938 349.075 306.98438 348.71564Q307.20312 348.1375 307.67188 347.575Q308.15625 347.0125 309.0625 346.27814Q310.46875 345.1219 310.95312 344.45Q311.45312 343.77814 311.45312 343.1844Q311.45312 342.5594 311.0 342.1375Q310.54688 341.7 309.82812 341.7Q309.0625 341.7 308.60938 342.15314Q308.15625 342.60626 308.14062 343.41876L307.0625 343.3094Q307.17188 342.09064 307.89062 341.46564Q308.625 340.825 309.85938 340.825Q311.09375 340.825 311.8125 341.5125Q312.53125 342.2 312.53125 343.21564Q312.53125 343.73126 312.3125 344.23126Q312.10938 344.71564 311.60938 345.27814Q311.125 345.825 310.0 346.77814Q309.04688 347.575 308.76562 347.8719Q308.5 348.15314 308.32812 348.4344L312.54688 348.4344ZM314.0 345.21564Q314.0 343.6844 314.3125 342.7625Q314.625 341.825 315.23438 341.325Q315.85938 340.825 316.79688 340.825Q317.48438 340.825 318.0 341.10626Q318.53125 341.3875 318.875 341.91876Q319.21875 342.4344 319.40625 343.1844Q319.59375 343.9344 319.59375 345.21564Q319.59375 346.73126 319.28125 347.65314Q318.98438 348.575 318.35938 349.09064Q317.75 349.59064 316.79688 349.59064Q315.5625 349.59064 314.84375 348.7Q314.0 347.6375 314.0 345.21564ZM315.07812 345.21564Q315.07812 347.325 315.57812 348.02814Q316.07812 348.73126 316.79688 348.73126Q317.53125 348.73126 318.01562 348.02814Q318.51562 347.325 318.51562 345.21564Q318.51562 343.09064 318.01562 342.40314Q317.53125 341.7 316.78125 341.7Q316.0625 341.7 315.625 342.3094Q315.07812 343.09064 315.07812 345.21564ZM321.29688 351.84064L321.29688 343.23126L322.25 343.23126L322.25 344.02814Q322.59375 343.5594 323.01562 343.325Q323.45312 343.09064 324.0625 343.09064Q324.85938 343.09064 325.46875 343.4969Q326.07812 343.90314 326.375 344.65314Q326.6875 345.40314 326.6875 346.29376Q326.6875 347.2469 326.34375 348.0125Q326.01562 348.77814 325.35938 349.1844Q324.70312 349.59064 323.98438 349.59064Q323.45312 349.59064 323.03125 349.3719Q322.60938 349.1375 322.34375 348.8094L322.34375 351.84064L321.29688 351.84064ZM322.25 346.3719Q322.25 347.575 322.73438 348.15314Q323.21875 348.71564 323.90625 348.71564Q324.60938 348.71564 325.10938 348.1219Q325.60938 347.52814 325.60938 346.27814Q325.60938 345.09064 325.125 344.5125Q324.64062 343.91876 323.95312 343.91876Q323.28125 343.91876 322.76562 344.54376Q322.25 345.16876 322.25 346.3719Z" fill-rule="nonzero"/><path fill="#000000" d="M462.4389 349.45L461.39203 349.45L461.39203 342.73126Q461.0014 343.09064 460.3764 343.46564Q459.76703 343.825 459.28265 343.9969L459.28265 342.98126Q460.15765 342.5594 460.8139 341.98126Q461.48578 341.3875 461.76703 340.825L462.4389 340.825L462.4389 349.45ZM465.47015 345.21564Q465.47015 343.6844 465.78265 342.7625Q466.09515 341.825 466.70453 341.325Q467.32953 340.825 468.26703 340.825Q468.95453 340.825 469.47015 341.10626Q470.0014 341.3875 470.34515 341.91876Q470.6889 342.4344 470.8764 343.1844Q471.0639 343.9344 471.0639 345.21564Q471.0639 346.73126 470.7514 347.65314Q470.45453 348.575 469.82953 349.09064Q469.22015 349.59064 468.26703 349.59064Q467.03265 349.59064 466.3139 348.7Q465.47015 347.6375 465.47015 345.21564ZM466.54828 345.21564Q466.54828 347.325 467.04828 348.02814Q467.54828 348.73126 468.26703 348.73126Q469.0014 348.73126 469.48578 348.02814Q469.98578 347.325 469.98578 345.21564Q469.98578 343.09064 469.48578 342.40314Q469.0014 341.7 468.2514 341.7Q467.53265 341.7 467.09515 342.3094Q466.54828 343.09064 466.54828 345.21564ZM474.09515 344.79376Q473.4389 344.54376 473.11078 344.10626Q472.79828 343.65314 472.79828 343.04376Q472.79828 342.10626 473.47015 341.46564Q474.15765 340.825 475.26703 340.825Q476.39203 340.825 477.07953 341.48126Q477.76703 342.1375 477.76703 343.075Q477.76703 343.66876 477.45453 344.10626Q477.14203 344.54376 476.5014 344.79376Q477.29828 345.04376 477.70453 345.6219Q478.11078 346.2 478.11078 346.9969Q478.11078 348.09064 477.32953 348.84064Q476.5639 349.59064 475.28265 349.59064Q474.01703 349.59064 473.23578 348.84064Q472.45453 348.09064 472.45453 346.96564Q472.45453 346.1219 472.8764 345.5594Q473.3139 344.9969 474.09515 344.79376ZM473.8764 342.9969Q473.8764 343.60626 474.26703 343.9969Q474.67328 344.3875 475.29828 344.3875Q475.90765 344.3875 476.29828 344.0125Q476.6889 343.6219 476.6889 343.0594Q476.6889 342.48126 476.28265 342.09064Q475.8764 341.6844 475.28265 341.6844Q474.67328 341.6844 474.26703 342.075Q473.8764 342.46564 473.8764 342.9969ZM473.54828 346.96564Q473.54828 347.41876 473.7514 347.84064Q473.97015 348.2625 474.39203 348.4969Q474.8139 348.73126 475.29828 348.73126Q476.04828 348.73126 476.53265 348.2469Q477.03265 347.7625 477.03265 347.0125Q477.03265 346.2469 476.53265 345.7469Q476.03265 345.2469 475.26703 345.2469Q474.51703 345.2469 474.03265 345.7469Q473.54828 346.23126 473.54828 346.96564ZM479.47015 345.21564Q479.47015 343.6844 479.78265 342.7625Q480.09515 341.825 480.70453 341.325Q481.32953 340.825 482.26703 340.825Q482.95453 340.825 483.47015 341.10626Q484.0014 341.3875 484.34515 341.91876Q484.6889 342.4344 484.8764 343.1844Q485.0639 343.9344 485.0639 345.21564Q485.0639 346.73126 484.7514 347.65314Q484.45453 348.575 483.82953 349.09064Q483.22015 349.59064 482.26703 349.59064Q481.03265 349.59064 480.3139 348.7Q479.47015 347.6375 479.47015 345.21564ZM480.54828 345.21564Q480.54828 347.325 481.04828 348.02814Q481.54828 348.73126 482.26703 348.73126Q483.0014 348.73126 483.48578 348.02814Q483.98578 347.325 483.98578 345.21564Q483.98578 343.09064 483.48578 342.40314Q483.0014 341.7 482.2514 341.7Q481.53265 341.7 481.09515 342.3094Q480.54828 343.09064 480.54828 345.21564ZM486.76703 342.075L486.76703 340.85626L487.82953 340.85626L487.82953 342.075L486.76703 342.075ZM486.76703 349.45L486.76703 343.23126L487.82953 343.23126L487.82953 349.45L486.76703 349.45Z" fill-rule="nonzero"/><path fill="#4285f4" d="M65.0 56.916668C65.0 56.364384 65.447716 55.916668 66.0 55.916668L76.0 55.916668C76.552284 55.916668 77.0 56.364384 77.0 56.916668L77.0 66.916664C77.0 67.46895 76.552284 67.916664 76.0 67.916664L66.0 67.916664C65.447716 67.916664 65.0 67.46895 65.0 66.916664Z" fill-rule="nonzero"/><path fill="#1a1a1a" d="M85.921875 65.916664L85.921875 57.322914L87.078125 57.322914L91.59375 64.072914L91.59375 57.322914L92.6875 57.322914L92.6875 65.916664L91.515625 65.916664L87.0 59.166664L87.0 65.916664L85.921875 65.916664ZM97.375 65.916664L94.046875 57.322914L95.28125 57.322914L97.515625 63.572914Q97.78125 64.322914 97.96875 64.979164Q98.171875 64.27604 98.4375 63.572914L100.75 57.322914L101.90625 57.322914L98.546875 65.916664L97.375 65.916664ZM102.953125 65.916664L102.953125 57.322914L109.15625 57.322914L109.15625 58.33854L104.09375 58.33854L104.09375 60.96354L108.84375 60.96354L108.84375 61.979164L104.09375 61.979164L104.09375 64.90104L109.359375 64.90104L109.359375 65.916664L102.953125 65.916664ZM110.921875 65.916664L110.921875 57.322914L112.078125 57.322914L116.59375 64.072914L116.59375 57.322914L117.6875 57.322914L117.6875 65.916664L116.515625 65.916664L112.0 59.166664L112.0 65.916664L110.921875 65.916664ZM126.0625 62.90104L127.1875 63.197914Q126.828125 64.58854 125.90625 65.322914Q124.984375 66.05729 123.640625 66.05729Q122.25 66.05729 121.375 65.49479Q120.5 64.93229 120.046875 63.86979Q119.59375 62.791664 119.59375 61.55729Q119.59375 60.21354 120.109375 59.21354Q120.625 58.21354 121.5625 57.697914Q122.515625 57.18229 123.65625 57.18229Q124.9375 57.18229 125.8125 57.83854Q126.703125 58.49479 127.046875 59.68229L125.921875 59.947914Q125.625 59.010414 125.046875 58.58854Q124.484375 58.15104 123.625 58.15104Q122.640625 58.15104 121.96875 58.635414Q121.3125 59.104164 121.03125 59.90104Q120.765625 60.697914 120.765625 61.55729Q120.765625 62.65104 121.078125 63.46354Q121.40625 64.27604 122.078125 64.68229Q122.75 65.08854 123.546875 65.08854Q124.5 65.08854 125.15625 64.541664Q125.828125 63.99479 126.0625 62.90104ZM129.0625 65.916664L129.0625 64.71354L130.26562 64.71354L130.26562 65.916664Q130.26562 66.572914 130.03125 66.979164Q129.79688 67.40104 129.29688 67.61979L129.0 67.166664Q129.32812 67.02604 129.48438 66.729164Q129.64062 66.447914 129.67188 65.916664L129.0625 65.916664ZM133.98438 65.916664L137.28125 57.322914L138.5 57.322914L142.01562 65.916664L140.73438 65.916664L139.71875 63.30729L136.14062 63.30729L135.1875 65.916664L133.98438 65.916664ZM136.46875 62.385414L139.375 62.385414L138.48438 60.010414Q138.0625 58.93229 137.875 58.229164Q137.70312 59.05729 137.40625 59.86979L136.46875 62.385414ZM141.98438 65.916664L145.28125 57.322914L146.5 57.322914L150.01562 65.916664L148.73438 65.916664L147.71875 63.30729L144.14062 63.30729L143.1875 65.916664L141.98438 65.916664ZM144.46875 62.385414L147.375 62.385414L146.48438 60.010414Q146.0625 58.93229 145.875 58.229164Q145.70312 59.05729 145.40625 59.86979L144.46875 62.385414ZM157.0625 62.90104L158.1875 63.197914Q157.82812 64.58854 156.90625 65.322914Q155.98438 66.05729 154.64062 66.05729Q153.25 66.05729 152.375 65.49479Q151.5 64.93229 151.04688 63.86979Q150.59375 62.791664 150.59375 61.55729Q150.59375 60.21354 151.10938 59.21354Q151.625 58.21354 152.5625 57.697914Q153.51562 57.18229 154.65625 57.18229Q155.9375 57.18229 156.8125 57.83854Q157.70312 58.49479 158.04688 59.68229L156.92188 59.947914Q156.625 59.010414 156.04688 58.58854Q155.48438 58.15104 154.625 58.15104Q153.64062 58.15104 152.96875 58.635414Q152.3125 59.104164 152.03125 59.90104Q151.76562 60.697914 151.76562 61.55729Q151.76562 62.65104 152.07812 63.46354Q152.40625 64.27604 153.07812 64.68229Q153.75 65.08854 154.54688 65.08854Q155.5 65.08854 156.15625 64.541664Q156.82812 63.99479 157.0625 62.90104Z" fill-rule="nonzero"/><path fill="#ea4335" d="M175.0 56.916668C175.0 56.364384 175.44771 55.916668 176.0 55.916668L186.0 55.916668C186.55229 55.916668 187.0 56.364384 187.0 56.916668L187.0 66.916664C187.0 67.46895 186.55229 67.916664 186.0 67.916664L176.0 67.916664C175.44771 67.916664 175.0 67.46895 175.0 66.916664Z" fill-rule="nonzero"/><path fill="#1a1a1a" d="M195.92188 65.916664L195.92188 57.322914L197.07812 57.322914L201.59375 64.072914L201.59375 57.322914L202.6875 57.322914L202.6875 65.916664L201.51562 65.916664L197.0 59.166664L197.0 65.916664L195.92188 65.916664ZM207.375 65.916664L204.04688 57.322914L205.28125 57.322914L207.51562 63.572914Q207.78125 64.322914 207.96875 64.979164Q208.17188 64.27604 208.4375 63.572914L210.75 57.322914L211.90625 57.322914L208.54688 65.916664L207.375 65.916664ZM212.95312 65.916664L212.95312 57.322914L219.15625 57.322914L219.15625 58.33854L214.09375 58.33854L214.09375 60.96354L218.84375 60.96354L218.84375 61.979164L214.09375 61.979164L214.09375 64.90104L219.35938 64.90104L219.35938 65.916664L212.95312 65.916664ZM220.92188 65.916664L220.92188 57.322914L222.07812 57.322914L226.59375 64.072914L226.59375 57.322914L227.6875 57.322914L227.6875 65.916664L226.51562 65.916664L222.0 59.166664L222.0 65.916664L220.92188 65.916664ZM236.0625 62.90104L237.1875 63.197914Q236.82812 64.58854 235.90625 65.322914Q234.98438 66.05729 233.64062 66.05729Q232.25 66.05729 231.375 65.49479Q230.5 64.93229 230.04688 63.86979Q229.59375 62.791664 229.59375 61.55729Q229.59375 60.21354 230.10938 59.21354Q230.625 58.21354 231.5625 57.697914Q232.51562 57.18229 233.65625 57.18229Q234.9375 57.18229 235.8125 57.83854Q236.70312 58.49479 237.04688 59.68229L235.92188 59.947914Q235.625 59.010414 235.04688 58.58854Q234.48438 58.15104 233.625 58.15104Q232.64062 58.15104 231.96875 58.635414Q231.3125 59.104164 231.03125 59.90104Q230.76562 60.697914 230.76562 61.55729Q230.76562 62.65104 231.07812 63.46354Q231.40625 64.27604 232.07812 64.68229Q232.75 65.08854 233.54688 65.08854Q234.5 65.08854 235.15625 64.541664Q235.82812 63.99479 236.0625 62.90104ZM239.0625 65.916664L239.0625 64.71354L240.26562 64.71354L240.26562 65.916664Q240.26562 66.572914 240.03125 66.979164Q239.79688 67.40104 239.29688 67.61979L239.0 67.166664Q239.32812 67.02604 239.48438 66.729164Q239.64062 66.447914 239.67188 65.916664L239.0625 65.916664ZM243.98438 65.916664L247.28125 57.322914L248.5 57.322914L252.01562 65.916664L250.73438 65.916664L249.71875 63.30729L246.14062 63.30729L245.1875 65.916664L243.98438 65.916664ZM246.46875 62.385414L249.375 62.385414L248.48438 60.010414Q248.0625 58.93229 247.875 58.229164Q247.70312 59.05729 247.40625 59.86979L246.46875 62.385414ZM259.0625 62.90104L260.1875 63.197914Q259.82812 64.58854 258.90625 65.322914Q257.98438 66.05729 256.64062 66.05729Q255.25 66.05729 254.375 65.49479Q253.5 64.93229 253.04688 63.86979Q252.59375 62.791664 252.59375 61.55729Q252.59375 60.21354 253.10938 59.21354Q253.625 58.21354 254.5625 57.697914Q255.51562 57.18229 256.65625 57.18229Q257.9375 57.18229 258.8125 57.83854Q259.70312 58.49479 260.04688 59.68229L258.92188 59.947914Q258.625 59.010414 258.04688 58.58854Q257.48438 58.15104 256.625 58.15104Q255.64062 58.15104 254.96875 58.635414Q254.3125 59.104164 254.03125 59.90104Q253.76562 60.697914 253.76562 61.55729Q253.76562 62.65104 254.07812 63.46354Q254.40625 64.27604 255.07812 64.68229Q255.75 65.08854 256.54688 65.08854Q257.5 65.08854 258.15625 64.541664Q258.82812 63.99479 259.0625 62.90104ZM261.5 63.65104L262.5625 63.510414Q262.73438 64.40104 263.17188 64.80729Q263.60938 65.197914 264.23438 65.197914Q264.98438 65.197914 265.5 64.68229Q266.01562 64.166664 266.01562 63.40104Q266.01562 62.68229 265.53125 62.21354Q265.0625 61.729164 264.32812 61.729164Q264.03125 61.729164 263.57812 61.854164L263.70312 60.916664Q263.8125 60.93229 263.875 60.93229Q264.54688 60.93229 265.07812 60.58854Q265.625 60.229164 265.625 59.49479Q265.625 58.916664 265.23438 58.541664Q264.84375 58.15104 264.21875 58.15104Q263.60938 58.15104 263.1875 58.541664Q262.78125 58.93229 262.67188 59.697914L261.60938 59.510414Q261.79688 58.46354 262.48438 57.885414Q263.17188 57.291664 264.1875 57.291664Q264.89062 57.291664 265.48438 57.604164Q266.07812 57.90104 266.39062 58.416664Q266.70312 58.93229 266.70312 59.52604Q266.70312 60.072914 266.40625 60.541664Q266.10938 60.99479 265.53125 61.260414Q266.28125 61.43229 266.70312 61.99479Q267.125 62.541664 267.125 63.385414Q267.125 64.510414 266.29688 65.291664Q265.48438 66.072914 264.23438 66.072914Q263.10938 66.072914 262.35938 65.40104Q261.60938 64.71354 261.5 63.65104ZM273.8125 68.447914Q272.9375 67.33854 272.32812 65.86979Q271.73438 64.385414 271.73438 62.80729Q271.73438 61.416664 272.17188 60.135414Q272.70312 58.65104 273.8125 57.18229L274.5625 57.18229Q273.85938 58.40104 273.625 58.916664Q273.26562 59.729164 273.0625 60.604164Q272.8125 61.697914 272.8125 62.80729Q272.8125 65.635414 274.5625 68.447914L273.8125 68.447914ZM282.0625 62.90104L283.1875 63.197914Q282.82812 64.58854 281.90625 65.322914Q280.98438 66.05729 279.64062 66.05729Q278.25 66.05729 277.375 65.49479Q276.5 64.93229 276.04688 63.86979Q275.59375 62.791664 275.59375 61.55729Q275.59375 60.21354 276.10938 59.21354Q276.625 58.21354 277.5625 57.697914Q278.51562 57.18229 279.65625 57.18229Q280.9375 57.18229 281.8125 57.83854Q282.70312 58.49479 283.04688 59.68229L281.92188 59.947914Q281.625 59.010414 281.04688 58.58854Q280.48438 58.15104 279.625 58.15104Q278.64062 58.15104 277.96875 58.635414Q277.3125 59.104164 277.03125 59.90104Q276.76562 60.697914 276.76562 61.55729Q276.76562 62.65104 277.07812 63.46354Q277.40625 64.27604 278.07812 64.68229Q278.75 65.08854 279.54688 65.08854Q280.5 65.08854 281.15625 64.541664Q281.82812 63.99479 282.0625 62.90104ZM284.40625 62.80729Q284.40625 61.072914 285.35938 60.24479Q286.15625 59.55729 287.3125 59.55729Q288.59375 59.55729 289.40625 60.40104Q290.23438 61.229164 290.23438 62.71354Q290.23438 63.916664 289.875 64.604164Q289.51562 65.291664 288.8125 65.68229Q288.125 66.05729 287.3125 66.05729Q286.01562 66.05729 285.20312 65.229164Q284.40625 64.385414 284.40625 62.80729ZM285.48438 62.80729Q285.48438 63.99479 286.0 64.58854Q286.53125 65.18229 287.3125 65.18229Q288.10938 65.18229 288.625 64.58854Q289.14062 63.99479 289.14062 62.77604Q289.14062 61.61979 288.60938 61.02604Q288.09375 60.43229 287.3125 60.43229Q286.53125 60.43229 286.0 61.02604Q285.48438 61.604164 285.48438 62.80729ZM291.79688 68.30729L291.79688 59.697914L292.75 59.697914L292.75 60.49479Q293.09375 60.02604 293.51562 59.791664Q293.95312 59.55729 294.5625 59.55729Q295.35938 59.55729 295.96875 59.96354Q296.57812 60.36979 296.875 61.11979Q297.1875 61.86979 297.1875 62.760414Q297.1875 63.71354 296.84375 64.479164Q296.51562 65.24479 295.85938 65.65104Q295.20312 66.05729 294.48438 66.05729Q293.95312 66.05729 293.53125 65.83854Q293.10938 65.604164 292.84375 65.27604L292.84375 68.30729L291.79688 68.30729ZM292.75 62.83854Q292.75 64.041664 293.23438 64.61979Q293.71875 65.18229 294.40625 65.18229Q295.10938 65.18229 295.60938 64.58854Q296.10938 63.99479 296.10938 62.74479Q296.10938 61.55729 295.625 60.979164Q295.14062 60.385414 294.45312 60.385414Q293.78125 60.385414 293.26562 61.010414Q292.75 61.635414 292.75 62.83854ZM298.75 68.30729L298.625 67.322914Q298.96875 67.416664 299.23438 67.416664Q299.57812 67.416664 299.78125 67.291664Q300.0 67.18229 300.14062 66.979164Q300.23438 66.80729 300.46875 66.18229Q300.48438 66.104164 300.5625 65.93229L298.1875 59.697914L299.32812 59.697914L300.625 63.291664Q300.875 63.979164 301.07812 64.74479Q301.26562 64.010414 301.51562 63.322914L302.84375 59.697914L303.89062 59.697914L301.53125 66.02604Q301.14062 67.041664 300.9375 67.43229Q300.65625 67.96354 300.28125 68.197914Q299.92188 68.447914 299.42188 68.447914Q299.125 68.447914 298.75 68.30729ZM305.48438 68.447914L304.73438 68.447914Q306.48438 65.635414 306.48438 62.80729Q306.48438 61.71354 306.23438 60.61979Q306.03125 59.74479 305.67188 58.93229Q305.4375 58.416664 304.73438 57.18229L305.48438 57.18229Q306.57812 58.65104 307.10938 60.135414Q307.5625 61.416664 307.5625 62.80729Q307.5625 64.385414 306.95312 65.86979Q306.34375 67.33854 305.48438 68.447914Z" fill-rule="nonzero"/><path fill="#fbbc04" d="M324.0 56.916668C324.0 56.364384 324.44772 55.916668 325.0 55.916668L335.0 55.916668C335.55228 55.916668 336.0 56.364384 336.0 56.916668L336.0 66.916664C336.0 67.46895 335.55228 67.916664 335.0 67.916664L325.0 67.916664C324.44772 67.916664 324.0 67.46895 324.0 66.916664Z" fill-rule="nonzero"/><path fill="#1a1a1a" d="M344.09375 65.916664L346.35938 62.68229L344.26562 59.697914L345.57812 59.697914L346.53125 61.15104Q346.79688 61.572914 346.96875 61.854164Q347.21875 61.46354 347.4375 61.166664L348.48438 59.697914L349.75 59.697914L347.59375 62.61979L349.90625 65.916664L348.625 65.916664L347.34375 63.979164L347.0 63.46354L345.35938 65.916664L344.09375 65.916664ZM356.04688 64.90104L356.04688 65.916664L350.35938 65.916664Q350.35938 65.541664 350.48438 65.18229Q350.70312 64.604164 351.17188 64.041664Q351.65625 63.479164 352.5625 62.74479Q353.96875 61.58854 354.45312 60.916664Q354.95312 60.24479 354.95312 59.65104Q354.95312 59.02604 354.5 58.604164Q354.04688 58.166664 353.32812 58.166664Q352.5625 58.166664 352.10938 58.61979Q351.65625 59.072914 351.64062 59.885414L350.5625 59.77604Q350.67188 58.55729 351.39062 57.93229Q352.125 57.291664 353.35938 57.291664Q354.59375 57.291664 355.3125 57.979164Q356.03125 58.666664 356.03125 59.68229Q356.03125 60.197914 355.8125 60.697914Q355.60938 61.18229 355.10938 61.74479Q354.625 62.291664 353.5 63.24479Q352.54688 64.041664 352.26562 64.33854Q352.0 64.61979 351.82812 64.90104L356.04688 64.90104ZM362.96875 59.43229L361.92188 59.510414Q361.78125 58.885414 361.53125 58.604164Q361.09375 58.15104 360.46875 58.15104Q359.96875 58.15104 359.57812 58.43229Q359.09375 58.80729 358.79688 59.510414Q358.51562 60.197914 358.5 61.479164Q358.875 60.90104 359.42188 60.61979Q359.98438 60.33854 360.59375 60.33854Q361.64062 60.33854 362.375 61.11979Q363.125 61.90104 363.125 63.11979Q363.125 63.93229 362.76562 64.635414Q362.42188 65.322914 361.8125 65.697914Q361.20312 66.05729 360.4375 66.05729Q359.10938 66.05729 358.28125 65.08854Q357.45312 64.11979 357.45312 61.90104Q357.45312 59.40104 358.375 58.27604Q359.17188 57.291664 360.53125 57.291664Q361.54688 57.291664 362.1875 57.86979Q362.84375 58.43229 362.96875 59.43229ZM358.67188 63.135414Q358.67188 63.68229 358.89062 64.18229Q359.125 64.666664 359.53125 64.93229Q359.95312 65.197914 360.42188 65.197914Q361.07812 65.197914 361.5625 64.666664Q362.04688 64.11979 362.04688 63.197914Q362.04688 62.30729 361.5625 61.791664Q361.09375 61.27604 360.375 61.27604Q359.65625 61.27604 359.15625 61.791664Q358.67188 62.30729 358.67188 63.135414ZM367.875 65.916664L367.875 63.854164L364.15625 63.854164L364.15625 62.885414L368.07812 57.322914L368.9375 57.322914L368.9375 62.885414L370.09375 62.885414L370.09375 63.854164L368.9375 63.854164L368.9375 65.916664L367.875 65.916664ZM367.875 62.885414L367.875 59.02604L365.1875 62.885414L367.875 62.885414ZM372.0625 65.916664L372.0625 64.71354L373.26562 64.71354L373.26562 65.916664Q373.26562 66.572914 373.03125 66.979164Q372.79688 67.40104 372.29688 67.61979L372.0 67.166664Q372.32812 67.02604 372.48438 66.729164Q372.64062 66.447914 372.67188 65.916664L372.0625 65.916664ZM376.98438 65.916664L380.28125 57.322914L381.5 57.322914L385.01562 65.916664L383.73438 65.916664L382.71875 63.30729L379.14062 63.30729L378.1875 65.916664L376.98438 65.916664ZM379.46875 62.385414L382.375 62.385414L381.48438 60.010414Q381.0625 58.93229 380.875 58.229164Q380.70312 59.05729 380.40625 59.86979L379.46875 62.385414ZM384.98438 65.916664L388.28125 57.322914L389.5 57.322914L393.01562 65.916664L391.73438 65.916664L390.71875 63.30729L387.14062 63.30729L386.1875 65.916664L384.98438 65.916664ZM387.46875 62.385414L390.375 62.385414L389.48438 60.010414Q389.0625 58.93229 388.875 58.229164Q388.70312 59.05729 388.40625 59.86979L387.46875 62.385414ZM400.0625 62.90104L401.1875 63.197914Q400.82812 64.58854 399.90625 65.322914Q398.98438 66.05729 397.64062 66.05729Q396.25 66.05729 395.375 65.49479Q394.5 64.93229 394.04688 63.86979Q393.59375 62.791664 393.59375 61.55729Q393.59375 60.21354 394.10938 59.21354Q394.625 58.21354 395.5625 57.697914Q396.51562 57.18229 397.65625 57.18229Q398.9375 57.18229 399.8125 57.83854Q400.70312 58.49479 401.04688 59.68229L399.92188 59.947914Q399.625 59.010414 399.04688 58.58854Q398.48438 58.15104 397.625 58.15104Q396.64062 58.15104 395.96875 58.635414Q395.3125 59.104164 395.03125 59.90104Q394.76562 60.697914 394.76562 61.55729Q394.76562 62.65104 395.07812 63.46354Q395.40625 64.27604 396.07812 64.68229Q396.75 65.08854 397.54688 65.08854Q398.5 65.08854 399.15625 64.541664Q399.82812 63.99479 400.0625 62.90104Z" fill-rule="nonzero"/><path fill="#34a853" d="M418.0 56.916668C418.0 56.364384 418.44772 55.916668 419.0 55.916668L429.0 55.916668C429.55228 55.916668 430.0 56.364384 430.0 56.916668L430.0 66.916664C430.0 67.46895 429.55228 67.916664 429.0 67.916664L419.0 67.916664C418.44772 67.916664 418.0 67.46895 418.0 66.916664Z" fill-rule="nonzero"/><path fill="#1a1a1a" d="M438.09375 65.916664L440.35938 62.68229L438.26562 59.697914L439.57812 59.697914L440.53125 61.15104Q440.79688 61.572914 440.96875 61.854164Q441.21875 61.46354 441.4375 61.166664L442.48438 59.697914L443.75 59.697914L441.59375 62.61979L443.90625 65.916664L442.625 65.916664L441.34375 63.979164L441.0 63.46354L439.35938 65.916664L438.09375 65.916664ZM450.04688 64.90104L450.04688 65.916664L444.35938 65.916664Q444.35938 65.541664 444.48438 65.18229Q444.70312 64.604164 445.17188 64.041664Q445.65625 63.479164 446.5625 62.74479Q447.96875 61.58854 448.45312 60.916664Q448.95312 60.24479 448.95312 59.65104Q448.95312 59.02604 448.5 58.604164Q448.04688 58.166664 447.32812 58.166664Q446.5625 58.166664 446.10938 58.61979Q445.65625 59.072914 445.64062 59.885414L444.5625 59.77604Q444.67188 58.55729 445.39062 57.93229Q446.125 57.291664 447.35938 57.291664Q448.59375 57.291664 449.3125 57.979164Q450.03125 58.666664 450.03125 59.68229Q450.03125 60.197914 449.8125 60.697914Q449.60938 61.18229 449.10938 61.74479Q448.625 62.291664 447.5 63.24479Q446.54688 64.041664 446.26562 64.33854Q446.0 64.61979 445.82812 64.90104L450.04688 64.90104ZM456.96875 59.43229L455.92188 59.510414Q455.78125 58.885414 455.53125 58.604164Q455.09375 58.15104 454.46875 58.15104Q453.96875 58.15104 453.57812 58.43229Q453.09375 58.80729 452.79688 59.510414Q452.51562 60.197914 452.5 61.479164Q452.875 60.90104 453.42188 60.61979Q453.98438 60.33854 454.59375 60.33854Q455.64062 60.33854 456.375 61.11979Q457.125 61.90104 457.125 63.11979Q457.125 63.93229 456.76562 64.635414Q456.42188 65.322914 455.8125 65.697914Q455.20312 66.05729 454.4375 66.05729Q453.10938 66.05729 452.28125 65.08854Q451.45312 64.11979 451.45312 61.90104Q451.45312 59.40104 452.375 58.27604Q453.17188 57.291664 454.53125 57.291664Q455.54688 57.291664 456.1875 57.86979Q456.84375 58.43229 456.96875 59.43229ZM452.67188 63.135414Q452.67188 63.68229 452.89062 64.18229Q453.125 64.666664 453.53125 64.93229Q453.95312 65.197914 454.42188 65.197914Q455.07812 65.197914 455.5625 64.666664Q456.04688 64.11979 456.04688 63.197914Q456.04688 62.30729 455.5625 61.791664Q455.09375 61.27604 454.375 61.27604Q453.65625 61.27604 453.15625 61.791664Q452.67188 62.30729 452.67188 63.135414ZM461.875 65.916664L461.875 63.854164L458.15625 63.854164L458.15625 62.885414L462.07812 57.322914L462.9375 57.322914L462.9375 62.885414L464.09375 62.885414L464.09375 63.854164L462.9375 63.854164L462.9375 65.916664L461.875 65.916664ZM461.875 62.885414L461.875 59.02604L459.1875 62.885414L461.875 62.885414ZM466.0625 65.916664L466.0625 64.71354L467.26562 64.71354L467.26562 65.916664Q467.26562 66.572914 467.03125 66.979164Q466.79688 67.40104 466.29688 67.61979L466.0 67.166664Q466.32812 67.02604 466.48438 66.729164Q466.64062 66.447914 466.67188 65.916664L466.0625 65.916664ZM470.98438 65.916664L474.28125 57.322914L475.5 57.322914L479.01562 65.916664L477.73438 65.916664L476.71875 63.30729L473.14062 63.30729L472.1875 65.916664L470.98438 65.916664ZM473.46875 62.385414L476.375 62.385414L475.48438 60.010414Q475.0625 58.93229 474.875 58.229164Q474.70312 59.05729 474.40625 59.86979L473.46875 62.385414ZM486.0625 62.90104L487.1875 63.197914Q486.82812 64.58854 485.90625 65.322914Q484.98438 66.05729 483.64062 66.05729Q482.25 66.05729 481.375 65.49479Q480.5 64.93229 480.04688 63.86979Q479.59375 62.791664 479.59375 61.55729Q479.59375 60.21354 480.10938 59.21354Q480.625 58.21354 481.5625 57.697914Q482.51562 57.18229 483.65625 57.18229Q484.9375 57.18229 485.8125 57.83854Q486.70312 58.49479 487.04688 59.68229L485.92188 59.947914Q485.625 59.010414 485.04688 58.58854Q484.48438 58.15104 483.625 58.15104Q482.64062 58.15104 481.96875 58.635414Q481.3125 59.104164 481.03125 59.90104Q480.76562 60.697914 480.76562 61.55729Q480.76562 62.65104 481.07812 63.46354Q481.40625 64.27604 482.07812 64.68229Q482.75 65.08854 483.54688 65.08854Q484.5 65.08854 485.15625 64.541664Q485.82812 63.99479 486.0625 62.90104ZM488.5 63.65104L489.5625 63.510414Q489.73438 64.40104 490.17188 64.80729Q490.60938 65.197914 491.23438 65.197914Q491.98438 65.197914 492.5 64.68229Q493.01562 64.166664 493.01562 63.40104Q493.01562 62.68229 492.53125 62.21354Q492.0625 61.729164 491.32812 61.729164Q491.03125 61.729164 490.57812 61.854164L490.70312 60.916664Q490.8125 60.93229 490.875 60.93229Q491.54688 60.93229 492.07812 60.58854Q492.625 60.229164 492.625 59.49479Q492.625 58.916664 492.23438 58.541664Q491.84375 58.15104 491.21875 58.15104Q490.60938 58.15104 490.1875 58.541664Q489.78125 58.93229 489.67188 59.697914L488.60938 59.510414Q488.79688 58.46354 489.48438 57.885414Q490.17188 57.291664 491.1875 57.291664Q491.89062 57.291664 492.48438 57.604164Q493.07812 57.90104 493.39062 58.416664Q493.70312 58.93229 493.70312 59.52604Q493.70312 60.072914 493.40625 60.541664Q493.10938 60.99479 492.53125 61.260414Q493.28125 61.43229 493.70312 61.99479Q494.125 62.541664 494.125 63.385414Q494.125 64.510414 493.29688 65.291664Q492.48438 66.072914 491.23438 66.072914Q490.10938 66.072914 489.35938 65.40104Q488.60938 64.71354 488.5 63.65104ZM500.8125 68.447914Q499.9375 67.33854 499.32812 65.86979Q498.73438 64.385414 498.73438 62.80729Q498.73438 61.416664 499.17188 60.135414Q499.70312 58.65104 500.8125 57.18229L501.5625 57.18229Q500.85938 58.40104 500.625 58.916664Q500.26562 59.729164 500.0625 60.604164Q499.8125 61.697914 499.8125 62.80729Q499.8125 65.635414 501.5625 68.447914L500.8125 68.447914ZM509.0625 62.90104L510.1875 63.197914Q509.82812 64.58854 508.90625 65.322914Q507.98438 66.05729 506.64062 66.05729Q505.25 66.05729 504.375 65.49479Q503.5 64.93229 503.04688 63.86979Q502.59375 62.791664 502.59375 61.55729Q502.59375 60.21354 503.10938 59.21354Q503.625 58.21354 504.5625 57.697914Q505.51562 57.18229 506.65625 57.18229Q507.9375 57.18229 508.8125 57.83854Q509.70312 58.49479 510.04688 59.68229L508.92188 59.947914Q508.625 59.010414 508.04688 58.58854Q507.48438 58.15104 506.625 58.15104Q505.64062 58.15104 504.96875 58.635414Q504.3125 59.104164 504.03125 59.90104Q503.76562 60.697914 503.76562 61.55729Q503.76562 62.65104 504.07812 63.46354Q504.40625 64.27604 505.07812 64.68229Q505.75 65.08854 506.54688 65.08854Q507.5 65.08854 508.15625 64.541664Q508.82812 63.99479 509.0625 62.90104ZM511.40625 62.80729Q511.40625 61.072914 512.3594 60.24479Q513.15625 59.55729 514.3125 59.55729Q515.59375 59.55729 516.40625 60.40104Q517.2344 61.229164 517.2344 62.71354Q517.2344 63.916664 516.875 64.604164Q516.5156 65.291664 515.8125 65.68229Q515.125 66.05729 514.3125 66.05729Q513.0156 66.05729 512.2031 65.229164Q511.40625 64.385414 511.40625 62.80729ZM512.4844 62.80729Q512.4844 63.99479 513.0 64.58854Q513.53125 65.18229 514.3125 65.18229Q515.1094 65.18229 515.625 64.58854Q516.1406 63.99479 516.1406 62.77604Q516.1406 61.61979 515.6094 61.02604Q515.09375 60.43229 514.3125 60.43229Q513.53125 60.43229 513.0 61.02604Q512.4844 61.604164 512.4844 62.80729ZM518.7969 68.30729L518.7969 59.697914L519.75 59.697914L519.75 60.49479Q520.09375 60.02604 520.5156 59.791664Q520.9531 59.55729 521.5625 59.55729Q522.3594 59.55729 522.96875 59.96354Q523.5781 60.36979 523.875 61.11979Q524.1875 61.86979 524.1875 62.760414Q524.1875 63.71354 523.84375 64.479164Q523.5156 65.24479 522.8594 65.65104Q522.2031 66.05729 521.4844 66.05729Q520.9531 66.05729 520.53125 65.83854Q520.1094 65.604164 519.84375 65.27604L519.84375 68.30729L518.7969 68.30729ZM519.75 62.83854Q519.75 64.041664 520.2344 64.61979Q520.71875 65.18229 521.40625 65.18229Q522.1094 65.18229 522.6094 64.58854Q523.1094 63.99479 523.1094 62.74479Q523.1094 61.55729 522.625 60.979164Q522.1406 60.385414 521.4531 60.385414Q520.78125 60.385414 520.2656 61.010414Q519.75 61.635414 519.75 62.83854ZM525.75 68.30729L525.625 67.322914Q525.96875 67.416664 526.2344 67.416664Q526.5781 67.416664 526.78125 67.291664Q527.0 67.18229 527.1406 66.979164Q527.2344 66.80729 527.46875 66.18229Q527.4844 66.104164 527.5625 65.93229L525.1875 59.697914L526.3281 59.697914L527.625 63.291664Q527.875 63.979164 528.0781 64.74479Q528.2656 64.010414 528.5156 63.322914L529.84375 59.697914L530.8906 59.697914L528.53125 66.02604Q528.1406 67.041664 527.9375 67.43229Q527.65625 67.96354 527.28125 68.197914Q526.9219 68.447914 526.4219 68.447914Q526.125 68.447914 525.75 68.30729ZM532.4844 68.447914L531.7344 68.447914Q533.4844 65.635414 533.4844 62.80729Q533.4844 61.71354 533.2344 60.61979Q533.03125 59.74479 532.6719 58.93229Q532.4375 58.416664 531.7344 57.18229L532.4844 57.18229Q533.5781 58.65104 534.1094 60.135414Q534.5625 61.416664 534.5625 62.80729Q534.5625 64.385414 533.9531 65.86979Q533.34375 67.33854 532.4844 68.447914Z" fill-rule="nonzero"/><path fill="#757575" d="M23.7375 37.55L23.7375 24.925L19.01875 24.925L19.01875 23.2375L30.3625 23.2375L30.3625 24.925L25.628124 24.925L25.628124 37.55L23.7375 37.55ZM31.846874 37.55L31.846874 27.175L33.425 27.175L33.425 28.753124Q34.034374 27.64375 34.55 27.3Q35.065624 26.940624 35.675 26.940624Q36.565624 26.940624 37.4875 27.503124L36.878124 29.14375Q36.2375 28.753124 35.596874 28.753124Q35.01875 28.753124 34.55 29.1125Q34.096874 29.45625 33.89375 30.065624Q33.6125 31.003124 33.6125 32.1125L33.6125 37.55L31.846874 37.55ZM45.64375 36.26875Q44.659374 37.096874 43.753124 37.440624Q42.846874 37.784374 41.815624 37.784374Q40.1125 37.784374 39.190624 36.95625Q38.26875 36.1125 38.26875 34.815624Q38.26875 34.05 38.6125 33.425Q38.971874 32.8 39.534374 32.425Q40.096874 32.034374 40.8 31.83125Q41.315624 31.70625 42.3625 31.565624Q44.4875 31.315624 45.4875 30.971874Q45.503124 30.6125 45.503124 30.503124Q45.503124 29.440624 45.003124 28.9875Q44.33125 28.39375 43.003124 28.39375Q41.753124 28.39375 41.159374 28.83125Q40.58125 29.26875 40.3 30.378124L38.58125 30.14375Q38.815624 29.034374 39.346874 28.3625Q39.878124 27.675 40.89375 27.315624Q41.909374 26.940624 43.253124 26.940624Q44.58125 26.940624 45.409374 27.253124Q46.2375 27.565624 46.628124 28.05Q47.01875 28.51875 47.175 29.2375Q47.26875 29.690624 47.26875 30.8625L47.26875 33.20625Q47.26875 35.659374 47.378124 36.315624Q47.4875 36.95625 47.83125 37.55L45.9875 37.55Q45.721874 37.003124 45.64375 36.26875ZM45.4875 32.346874Q44.534374 32.7375 42.6125 33.003124Q41.534374 33.159374 41.08125 33.3625Q40.64375 33.55 40.39375 33.925Q40.14375 34.3 40.14375 34.76875Q40.14375 35.471874 40.675 35.940624Q41.20625 36.409374 42.2375 36.409374Q43.253124 36.409374 44.034374 35.971874Q44.83125 35.51875 45.20625 34.753124Q45.4875 34.14375 45.4875 32.9875L45.4875 32.346874ZM49.8625 37.55L49.8625 27.175L51.45625 27.175L51.45625 28.659374Q52.596874 26.940624 54.753124 26.940624Q55.690624 26.940624 56.471874 27.284374Q57.26875 27.6125 57.659374 28.159374Q58.05 28.70625 58.20625 29.45625Q58.3 29.95625 58.3 31.175L58.3 37.55L56.534374 37.55L56.534374 31.2375Q56.534374 30.159374 56.33125 29.628124Q56.128124 29.096874 55.596874 28.784374Q55.08125 28.471874 54.378124 28.471874Q53.253124 28.471874 52.440624 29.190624Q51.628124 29.89375 51.628124 31.878124L51.628124 37.55L49.8625 37.55ZM60.159374 34.45625L61.909374 34.175Q62.05 35.221874 62.721874 35.784374Q63.39375 36.33125 64.59688 36.33125Q65.8 36.33125 66.37813 35.846874Q66.97188 35.346874 66.97188 34.690624Q66.97188 34.096874 66.45625 33.753124Q66.09688 33.51875 64.65938 33.159374Q62.721874 32.659374 61.971874 32.315624Q61.2375 31.95625 60.846874 31.33125Q60.45625 30.690624 60.45625 29.925Q60.45625 29.2375 60.76875 28.64375Q61.096874 28.05 61.64375 27.659374Q62.05 27.3625 62.753124 27.159374Q63.471874 26.940624 64.28438 26.940624Q65.50313 26.940624 66.425 27.3Q67.34688 27.64375 67.78438 28.253124Q68.22188 28.846874 68.39375 29.846874L66.675 30.08125Q66.55 29.284374 65.9875 28.846874Q65.425 28.39375 64.40938 28.39375Q63.190624 28.39375 62.675 28.8Q62.159374 29.190624 62.159374 29.721874Q62.159374 30.065624 62.378124 30.346874Q62.58125 30.628124 63.05 30.815624Q63.315624 30.909374 64.59688 31.253124Q66.47188 31.753124 67.20625 32.08125Q67.94063 32.39375 68.3625 33.003124Q68.78438 33.596874 68.78438 34.503124Q68.78438 35.378124 68.26875 36.159374Q67.75313 36.940624 66.78438 37.3625Q65.81563 37.784374 64.59688 37.784374Q62.58125 37.784374 61.51875 36.940624Q60.45625 36.096874 60.159374 34.45625ZM77.64375 33.753124L79.3625 33.971874Q79.08125 35.76875 77.90938 36.784374Q76.75313 37.784374 75.05 37.784374Q72.925 37.784374 71.62813 36.39375Q70.33125 35.003124 70.33125 32.409374Q70.33125 30.721874 70.87813 29.471874Q71.44063 28.20625 72.58125 27.58125Q73.72188 26.940624 75.06563 26.940624Q76.75313 26.940624 77.81563 27.8Q78.89375 28.659374 79.20625 30.221874L77.4875 30.4875Q77.25313 29.440624 76.62813 28.925Q76.00313 28.39375 75.12813 28.39375Q73.8 28.39375 72.97188 29.346874Q72.14375 30.3 72.14375 32.346874Q72.14375 34.440624 72.94063 35.39375Q73.7375 36.33125 75.03438 36.33125Q76.06563 36.33125 76.75313 35.70625Q77.45625 35.065624 77.64375 33.753124ZM80.22188 32.3625Q80.22188 29.4875 81.81563 28.096874Q83.15938 26.940624 85.08125 26.940624Q87.22188 26.940624 88.56563 28.346874Q89.925 29.753124 89.925 32.221874Q89.925 34.221874 89.33125 35.378124Q88.7375 36.51875 87.58125 37.159374Q86.44063 37.784374 85.08125 37.784374Q82.89375 37.784374 81.55 36.39375Q80.22188 34.9875 80.22188 32.3625ZM82.01875 32.3625Q82.01875 34.3625 82.87813 35.346874Q83.75313 36.33125 85.08125 36.33125Q86.39375 36.33125 87.25313 35.346874Q88.12813 34.346874 88.12813 32.3Q88.12813 30.378124 87.25313 29.39375Q86.37813 28.39375 85.08125 28.39375Q83.75313 28.39375 82.87813 29.39375Q82.01875 30.378124 82.01875 32.3625ZM98.59688 37.55L98.59688 36.2375Q97.6125 37.784374 95.69063 37.784374Q94.45625 37.784374 93.40938 37.096874Q92.37813 36.409374 91.8 35.190624Q91.2375 33.971874 91.2375 32.378124Q91.2375 30.815624 91.75313 29.55Q92.26875 28.284374 93.3 27.6125Q94.34688 26.940624 95.6125 26.940624Q96.55 26.940624 97.28438 27.346874Q98.01875 27.7375 98.4875 28.3625L98.4875 23.2375L100.22188 23.2375L100.22188 37.55L98.59688 37.55ZM93.03438 32.378124Q93.03438 34.3625 93.87813 35.346874Q94.72188 36.33125 95.8625 36.33125Q97.01875 36.33125 97.81563 35.39375Q98.62813 34.45625 98.62813 32.51875Q98.62813 30.39375 97.8 29.39375Q96.9875 28.39375 95.78438 28.39375Q94.6125 28.39375 93.81563 29.3625Q93.03438 30.315624 93.03438 32.378124ZM102.87813 25.253124L102.87813 23.2375L104.64375 23.2375L104.64375 25.253124L102.87813 25.253124ZM102.87813 37.55L102.87813 27.175L104.64375 27.175L104.64375 37.55L102.87813 37.55ZM106.8625 37.55L106.8625 27.175L108.45625 27.175L108.45625 28.659374Q109.59688 26.940624 111.75313 26.940624Q112.69063 26.940624 113.47188 27.284374Q114.26875 27.6125 114.65938 28.159374Q115.05 28.70625 115.20625 29.45625Q115.3 29.95625 115.3 31.175L115.3 37.55L113.53438 37.55L113.53438 31.2375Q113.53438 30.159374 113.33125 29.628124Q113.12813 29.096874 112.59688 28.784374Q112.08125 28.471874 111.37813 28.471874Q110.25313 28.471874 109.44063 29.190624Q108.62813 29.89375 108.62813 31.878124L108.62813 37.55L106.8625 37.55ZM117.55 38.409374L119.25313 38.659374Q119.3625 39.45625 119.84688 39.815624Q120.50313 40.3 121.64375 40.3Q122.8625 40.3 123.51875 39.815624Q124.19063 39.33125 124.425 38.45625Q124.56563 37.909374 124.55 36.190624Q123.39375 37.55 121.675 37.55Q119.53438 37.55 118.3625 36.003124Q117.19063 34.45625 117.19063 32.3Q117.19063 30.815624 117.72188 29.565624Q118.26875 28.315624 119.28438 27.628124Q120.31563 26.940624 121.69063 26.940624Q123.51875 26.940624 124.72188 28.425L124.72188 27.175L126.33125 27.175L126.33125 36.14375Q126.33125 38.565624 125.83125 39.565624Q125.34688 40.58125 124.26875 41.159374Q123.20625 41.753124 121.64375 41.753124Q119.8 41.753124 118.64375 40.925Q117.50313 40.096874 117.55 38.409374ZM119.00313 32.175Q119.00313 34.221874 119.81563 35.159374Q120.62813 36.096874 121.84688 36.096874Q123.05 36.096874 123.8625 35.159374Q124.69063 34.221874 124.69063 32.2375Q124.69063 30.33125 123.84688 29.3625Q123.00313 28.39375 121.81563 28.39375Q120.64375 28.39375 119.81563 29.346874Q119.00313 30.3 119.00313 32.175ZM134.45625 32.95625L136.2375 32.8Q136.3625 33.8625 136.81563 34.55Q137.28438 35.2375 138.25313 35.675Q139.2375 36.096874 140.47188 36.096874Q141.55 36.096874 142.37813 35.784374Q143.20625 35.45625 143.6125 34.89375Q144.01875 34.33125 144.01875 33.659374Q144.01875 32.9875 143.62813 32.4875Q143.2375 31.9875 142.34688 31.64375Q141.76875 31.409374 139.78438 30.940624Q137.81563 30.471874 137.03438 30.05Q136.00313 29.51875 135.50313 28.721874Q135.00313 27.925 135.00313 26.940624Q135.00313 25.846874 135.6125 24.909374Q136.22188 23.971874 137.40938 23.4875Q138.59688 22.9875 140.03438 22.9875Q141.62813 22.9875 142.84688 23.503124Q144.06563 24.01875 144.70625 25.01875Q145.3625 26.003124 145.40938 27.26875L143.59688 27.409374Q143.45625 26.05 142.6125 25.3625Q141.76875 24.659374 140.1125 24.659374Q138.39375 24.659374 137.59688 25.3Q136.81563 25.925 136.81563 26.8Q136.81563 27.58125 137.37813 28.08125Q137.925 28.58125 140.2375 29.096874Q142.55 29.6125 143.40938 30.003124Q144.65938 30.58125 145.25313 31.471874Q145.84688 32.346874 145.84688 33.503124Q145.84688 34.64375 145.19063 35.659374Q144.53438 36.675 143.3 37.2375Q142.08125 37.8 140.55 37.8Q138.6125 37.8 137.3 37.2375Q135.9875 36.659374 135.2375 35.51875Q134.4875 34.378124 134.45625 32.95625ZM147.8625 41.51875L147.8625 27.175L149.47188 27.175L149.47188 28.51875Q150.03438 27.7375 150.7375 27.346874Q151.45625 26.940624 152.47188 26.940624Q153.8 26.940624 154.81563 27.628124Q155.83125 28.315624 156.34688 29.565624Q156.87813 30.8 156.87813 32.284374Q156.87813 33.878124 156.3 35.159374Q155.7375 36.425 154.64375 37.1125Q153.55 37.784374 152.34688 37.784374Q151.47188 37.784374 150.76875 37.409374Q150.08125 37.034374 149.62813 36.471874L149.62813 41.51875L147.8625 41.51875ZM149.45625 32.425Q149.45625 34.425 150.26875 35.378124Q151.08125 36.33125 152.2375 36.33125Q153.40938 36.33125 154.2375 35.346874Q155.08125 34.3625 155.08125 32.26875Q155.08125 30.3 154.25313 29.315624Q153.44063 28.315624 152.31563 28.315624Q151.19063 28.315624 150.31563 29.378124Q149.45625 30.425 149.45625 32.425ZM165.97188 34.20625L167.78438 34.440624Q167.3625 36.01875 166.19063 36.909374Q165.03438 37.784374 163.22188 37.784374Q160.95625 37.784374 159.6125 36.39375Q158.28438 34.9875 158.28438 32.45625Q158.28438 29.83125 159.62813 28.39375Q160.97188 26.940624 163.12813 26.940624Q165.20625 26.940624 166.51875 28.3625Q167.84688 29.76875 167.84688 32.346874Q167.84688 32.503124 167.83125 32.815624L160.09688 32.815624Q160.19063 34.51875 161.06563 35.425Q161.94063 36.33125 163.2375 36.33125Q164.20625 36.33125 164.87813 35.83125Q165.56563 35.315624 165.97188 34.20625ZM160.19063 31.3625L165.9875 31.3625Q165.87813 30.065624 165.33125 29.409374Q164.4875 28.39375 163.14375 28.39375Q161.94063 28.39375 161.1125 29.20625Q160.28438 30.003124 160.19063 31.3625ZM176.97188 34.20625L178.78438 34.440624Q178.3625 36.01875 177.19063 36.909374Q176.03438 37.784374 174.22188 37.784374Q171.95625 37.784374 170.6125 36.39375Q169.28438 34.9875 169.28438 32.45625Q169.28438 29.83125 170.62813 28.39375Q171.97188 26.940624 174.12813 26.940624Q176.20625 26.940624 177.51875 28.3625Q178.84688 29.76875 178.84688 32.346874Q178.84688 32.503124 178.83125 32.815624L171.09688 32.815624Q171.19063 34.51875 172.06563 35.425Q172.94063 36.33125 174.2375 36.33125Q175.20625 36.33125 175.87813 35.83125Q176.56563 35.315624 176.97188 34.20625ZM171.19063 31.3625L176.9875 31.3625Q176.87813 30.065624 176.33125 29.409374Q175.4875 28.39375 174.14375 28.39375Q172.94063 28.39375 172.1125 29.20625Q171.28438 30.003124 171.19063 31.3625ZM187.59688 37.55L187.59688 36.2375Q186.6125 37.784374 184.69063 37.784374Q183.45625 37.784374 182.40938 37.096874Q181.37813 36.409374 180.8 35.190624Q180.2375 33.971874 180.2375 32.378124Q180.2375 30.815624 180.75313 29.55Q181.26875 28.284374 182.3 27.6125Q183.34688 26.940624 184.6125 26.940624Q185.55 26.940624 186.28438 27.346874Q187.01875 27.7375 187.4875 28.3625L187.4875 23.2375L189.22188 23.2375L189.22188 37.55L187.59688 37.55ZM182.03438 32.378124Q182.03438 34.3625 182.87813 35.346874Q183.72188 36.33125 184.8625 36.33125Q186.01875 36.33125 186.81563 35.39375Q187.62813 34.45625 187.62813 32.51875Q187.62813 30.39375 186.8 29.39375Q185.9875 28.39375 184.78438 28.39375Q183.6125 28.39375 182.81563 29.3625Q182.03438 30.315624 182.03438 32.378124ZM201.22188 41.753124Q199.76875 39.925 198.76875 37.471874Q197.76875 35.003124 197.76875 32.3625Q197.76875 30.034374 198.51875 27.909374Q199.39375 25.440624 201.22188 22.9875L202.4875 22.9875Q201.3 25.01875 200.925 25.89375Q200.33125 27.2375 199.9875 28.70625Q199.56563 30.534374 199.56563 32.378124Q199.56563 37.065624 202.4875 41.753124L201.22188 41.753124ZM205.28438 37.55L205.28438 28.55L203.7375 28.55L203.7375 27.175L205.28438 27.175L205.28438 26.08125Q205.28438 25.034374 205.47188 24.51875Q205.72188 23.83125 206.3625 23.409374Q207.00313 22.9875 208.15938 22.9875Q208.90938 22.9875 209.8 23.159374L209.53438 24.690624Q208.9875 24.596874 208.50313 24.596874Q207.70625 24.596874 207.3625 24.940624Q207.03438 25.284374 207.03438 26.221874L207.03438 27.175L209.06563 27.175L209.06563 28.55L207.03438 28.55L207.03438 37.55L205.28438 37.55ZM210.8625 41.51875L210.8625 27.175L212.47188 27.175L212.47188 28.51875Q213.03438 27.7375 213.7375 27.346874Q214.45625 26.940624 215.47188 26.940624Q216.8 26.940624 217.81563 27.628124Q218.83125 28.315624 219.34688 29.565624Q219.87813 30.8 219.87813 32.284374Q219.87813 33.878124 219.3 35.159374Q218.7375 36.425 217.64375 37.1125Q216.55 37.784374 215.34688 37.784374Q214.47188 37.784374 213.76875 37.409374Q213.08125 37.034374 212.62813 36.471874L212.62813 41.51875L210.8625 41.51875ZM212.45625 32.425Q212.45625 34.425 213.26875 35.378124Q214.08125 36.33125 215.2375 36.33125Q216.40938 36.33125 217.2375 35.346874Q218.08125 34.3625 218.08125 32.26875Q218.08125 30.3 217.25313 29.315624Q216.44063 28.315624 215.31563 28.315624Q214.19063 28.315624 213.31563 29.378124Q212.45625 30.425 212.45625 32.425ZM221.15938 34.45625L222.90938 34.175Q223.05 35.221874 223.72188 35.784374Q224.39375 36.33125 225.59688 36.33125Q226.8 36.33125 227.37813 35.846874Q227.97188 35.346874 227.97188 34.690624Q227.97188 34.096874 227.45625 33.753124Q227.09688 33.51875 225.65938 33.159374Q223.72188 32.659374 222.97188 32.315624Q222.2375 31.95625 221.84688 31.33125Q221.45625 30.690624 221.45625 29.925Q221.45625 29.2375 221.76875 28.64375Q222.09688 28.05 222.64375 27.659374Q223.05 27.3625 223.75313 27.159374Q224.47188 26.940624 225.28438 26.940624Q226.50313 26.940624 227.425 27.3Q228.34688 27.64375 228.78438 28.253124Q229.22188 28.846874 229.39375 29.846874L227.675 30.08125Q227.55 29.284374 226.9875 28.846874Q226.425 28.39375 225.40938 28.39375Q224.19063 28.39375 223.675 28.8Q223.15938 29.190624 223.15938 29.721874Q223.15938 30.065624 223.37813 30.346874Q223.58125 30.628124 224.05 30.815624Q224.31563 30.909374 225.59688 31.253124Q227.47188 31.753124 228.20625 32.08125Q228.94063 32.39375 229.3625 33.003124Q229.78438 33.596874 229.78438 34.503124Q229.78438 35.378124 229.26875 36.159374Q228.75313 36.940624 227.78438 37.3625Q226.81563 37.784374 225.59688 37.784374Q223.58125 37.784374 222.51875 36.940624Q221.45625 36.096874 221.15938 34.45625ZM237.19063 33.253124L237.19063 31.4875L242.58125 31.4875L242.58125 33.253124L237.19063 33.253124ZM250.8625 37.55L250.8625 23.2375L252.62813 23.2375L252.62813 28.3625Q253.8625 26.940624 255.7375 26.940624Q256.8781 26.940624 257.72186 27.39375Q258.58124 27.846874 258.9406 28.659374Q259.3156 29.45625 259.3156 30.971874L259.3156 37.55L257.5656 37.55L257.5656 30.971874Q257.5656 29.659374 256.9875 29.065624Q256.40936 28.45625 255.37813 28.45625Q254.59688 28.45625 253.89375 28.8625Q253.20625 29.26875 252.90938 29.971874Q252.62813 30.659374 252.62813 31.878124L252.62813 37.55L250.8625 37.55ZM261.8781 25.253124L261.8781 23.2375L263.64374 23.2375L263.64374 25.253124L261.8781 25.253124ZM261.8781 37.55L261.8781 27.175L263.64374 27.175L263.64374 37.55L261.8781 37.55ZM265.55 38.409374L267.2531 38.659374Q267.3625 39.45625 267.84686 39.815624Q268.5031 40.3 269.64374 40.3Q270.8625 40.3 271.51874 39.815624Q272.1906 39.33125 272.425 38.45625Q272.5656 37.909374 272.55 36.190624Q271.39374 37.55 269.675 37.55Q267.53436 37.55 266.3625 36.003124Q265.1906 34.45625 265.1906 32.3Q265.1906 30.815624 265.72186 29.565624Q266.26874 28.315624 267.28436 27.628124Q268.3156 26.940624 269.6906 26.940624Q271.51874 26.940624 272.72186 28.425L272.72186 27.175L274.33124 27.175L274.33124 36.14375Q274.33124 38.565624 273.83124 39.565624Q273.34686 40.58125 272.26874 41.159374Q271.20624 41.753124 269.64374 41.753124Q267.8 41.753124 266.64374 40.925Q265.5031 40.096874 265.55 38.409374ZM267.0031 32.175Q267.0031 34.221874 267.8156 35.159374Q268.6281 36.096874 269.84686 36.096874Q271.05 36.096874 271.8625 35.159374Q272.6906 34.221874 272.6906 32.2375Q272.6906 30.33125 271.84686 29.3625Q271.0031 28.39375 269.8156 28.39375Q268.64374 28.39375 267.8156 29.346874Q267.0031 30.3 267.0031 32.175ZM276.8625 37.55L276.8625 23.2375L278.6281 23.2375L278.6281 28.3625Q279.8625 26.940624 281.7375 26.940624Q282.8781 26.940624 283.72186 27.39375Q284.58124 27.846874 284.9406 28.659374Q285.3156 29.45625 285.3156 30.971874L285.3156 37.55L283.5656 37.55L283.5656 30.971874Q283.5656 29.659374 282.9875 29.065624Q282.40936 28.45625 281.3781 28.45625Q280.59686 28.45625 279.89374 28.8625Q279.20624 29.26875 278.90936 29.971874Q278.6281 30.659374 278.6281 31.878124L278.6281 37.55L276.8625 37.55ZM294.97186 34.20625L296.78436 34.440624Q296.3625 36.01875 295.1906 36.909374Q294.03436 37.784374 292.22186 37.784374Q289.95624 37.784374 288.6125 36.39375Q287.28436 34.9875 287.28436 32.45625Q287.28436 29.83125 288.6281 28.39375Q289.97186 26.940624 292.1281 26.940624Q294.20624 26.940624 295.51874 28.3625Q296.84686 29.76875 296.84686 32.346874Q296.84686 32.503124 296.83124 32.815624L289.09686 32.815624Q289.1906 34.51875 290.0656 35.425Q290.9406 36.33125 292.2375 36.33125Q293.20624 36.33125 293.8781 35.83125Q294.5656 35.315624 294.97186 34.20625ZM289.1906 31.3625L294.9875 31.3625Q294.8781 30.065624 294.33124 29.409374Q293.4875 28.39375 292.14374 28.39375Q290.9406 28.39375 290.1125 29.20625Q289.28436 30.003124 289.1906 31.3625ZM298.84686 37.55L298.84686 27.175L300.425 27.175L300.425 28.753124Q301.03436 27.64375 301.55 27.3Q302.0656 26.940624 302.675 26.940624Q303.5656 26.940624 304.4875 27.503124L303.8781 29.14375Q303.2375 28.753124 302.59686 28.753124Q302.01874 28.753124 301.55 29.1125Q301.09686 29.45625 300.89374 30.065624Q300.6125 31.003124 300.6125 32.1125L300.6125 37.55L298.84686 37.55ZM311.8781 25.253124L311.8781 23.2375L313.64374 23.2375L313.64374 25.253124L311.8781 25.253124ZM311.8781 37.55L311.8781 27.175L313.64374 27.175L313.64374 37.55L311.8781 37.55ZM315.15936 34.45625L316.90936 34.175Q317.05 35.221874 317.72186 35.784374Q318.39374 36.33125 319.59686 36.33125Q320.8 36.33125 321.3781 35.846874Q321.97186 35.346874 321.97186 34.690624Q321.97186 34.096874 321.45624 33.753124Q321.09686 33.51875 319.65936 33.159374Q317.72186 32.659374 316.97186 32.315624Q316.2375 31.95625 315.84686 31.33125Q315.45624 30.690624 315.45624 29.925Q315.45624 29.2375 315.76874 28.64375Q316.09686 28.05 316.64374 27.659374Q317.05 27.3625 317.7531 27.159374Q318.47186 26.940624 319.28436 26.940624Q320.5031 26.940624 321.425 27.3Q322.34686 27.64375 322.78436 28.253124Q323.22186 28.846874 323.39374 29.846874L321.675 30.08125Q321.55 29.284374 320.9875 28.846874Q320.425 28.39375 319.40936 28.39375Q318.1906 28.39375 317.675 28.8Q317.15936 29.190624 317.15936 29.721874Q317.15936 30.065624 317.3781 30.346874Q317.58124 30.628124 318.05 30.815624Q318.3156 30.909374 319.59686 31.253124Q321.47186 31.753124 322.20624 32.08125Q322.9406 32.39375 323.3625 33.003124Q323.78436 33.596874 323.78436 34.503124Q323.78436 35.378124 323.26874 36.159374Q322.7531 36.940624 321.78436 37.3625Q320.8156 37.784374 319.59686 37.784374Q317.58124 37.784374 316.51874 36.940624Q315.45624 36.096874 315.15936 34.45625ZM333.4875 37.55L331.8625 37.55L331.8625 23.2375L333.6125 23.2375L333.6125 28.346874Q334.7375 26.940624 336.45624 26.940624Q337.40936 26.940624 338.26874 27.33125Q339.1281 27.721874 339.675 28.425Q340.22186 29.1125 340.53436 30.096874Q340.84686 31.08125 340.84686 32.20625Q340.84686 34.878124 339.53436 36.33125Q338.22186 37.784374 336.3781 37.784374Q334.53436 37.784374 333.4875 36.253124L333.4875 37.55ZM333.47186 32.284374Q333.47186 34.14375 333.97186 34.9875Q334.8156 36.33125 336.22186 36.33125Q337.3781 36.33125 338.20624 35.33125Q339.05 34.33125 339.05 32.346874Q339.05 30.315624 338.2375 29.3625Q337.4406 28.39375 336.3 28.39375Q335.14374 28.39375 334.3 29.39375Q333.47186 30.39375 333.47186 32.284374ZM349.97186 34.20625L351.78436 34.440624Q351.3625 36.01875 350.1906 36.909374Q349.03436 37.784374 347.22186 37.784374Q344.95624 37.784374 343.6125 36.39375Q342.28436 34.9875 342.28436 32.45625Q342.28436 29.83125 343.6281 28.39375Q344.97186 26.940624 347.1281 26.940624Q349.20624 26.940624 350.51874 28.3625Q351.84686 29.76875 351.84686 32.346874Q351.84686 32.503124 351.83124 32.815624L344.09686 32.815624Q344.1906 34.51875 345.0656 35.425Q345.9406 36.33125 347.2375 36.33125Q348.20624 36.33125 348.8781 35.83125Q349.5656 35.315624 349.97186 34.20625ZM344.1906 31.3625L349.9875 31.3625Q349.8781 30.065624 349.33124 29.409374Q348.4875 28.39375 347.14374 28.39375Q345.9406 28.39375 345.1125 29.20625Q344.28436 30.003124 344.1906 31.3625ZM357.70624 35.971874L357.95624 37.534374Q357.22186 37.690624 356.6281 37.690624Q355.675 37.690624 355.14374 37.39375Q354.6281 37.08125 354.40936 36.596874Q354.1906 36.096874 354.1906 34.51875L354.1906 28.55L352.90936 28.55L352.90936 27.175L354.1906 27.175L354.1906 24.6125L355.9406 23.55L355.9406 27.175L357.70624 27.175L357.70624 28.55L355.9406 28.55L355.9406 34.6125Q355.9406 35.3625 356.03436 35.58125Q356.1281 35.784374 356.33124 35.925Q356.55 36.05 356.9406 36.05Q357.22186 36.05 357.70624 35.971874ZM363.70624 35.971874L363.95624 37.534374Q363.22186 37.690624 362.6281 37.690624Q361.675 37.690624 361.14374 37.39375Q360.6281 37.08125 360.40936 36.596874Q360.1906 36.096874 360.1906 34.51875L360.1906 28.55L358.90936 28.55L358.90936 27.175L360.1906 27.175L360.1906 24.6125L361.9406 23.55L361.9406 27.175L363.70624 27.175L363.70624 28.55L361.9406 28.55L361.9406 34.6125Q361.9406 35.3625 362.03436 35.58125Q362.1281 35.784374 362.33124 35.925Q362.55 36.05 362.9406 36.05Q363.22186 36.05 363.70624 35.971874ZM372.97186 34.20625L374.78436 34.440624Q374.3625 36.01875 373.1906 36.909374Q372.03436 37.784374 370.22186 37.784374Q367.95624 37.784374 366.6125 36.39375Q365.28436 34.9875 365.28436 32.45625Q365.28436 29.83125 366.6281 28.39375Q367.97186 26.940624 370.1281 26.940624Q372.20624 26.940624 373.51874 28.3625Q374.84686 29.76875 374.84686 32.346874Q374.84686 32.503124 374.83124 32.815624L367.09686 32.815624Q367.1906 34.51875 368.0656 35.425Q368.9406 36.33125 370.2375 36.33125Q371.20624 36.33125 371.8781 35.83125Q372.5656 35.315624 372.97186 34.20625ZM367.1906 31.3625L372.9875 31.3625Q372.8781 30.065624 372.33124 29.409374Q371.4875 28.39375 370.14374 28.39375Q368.9406 28.39375 368.1125 29.20625Q367.28436 30.003124 367.1906 31.3625ZM376.84686 37.55L376.84686 27.175L378.425 27.175L378.425 28.753124Q379.03436 27.64375 379.55 27.3Q380.0656 26.940624 380.675 26.940624Q381.5656 26.940624 382.4875 27.503124L381.8781 29.14375Q381.2375 28.753124 380.59686 28.753124Q380.01874 28.753124 379.55 29.1125Q379.09686 29.45625 378.89374 30.065624Q378.6125 31.003124 378.6125 32.1125L378.6125 37.55L376.84686 37.55ZM385.01874 41.753124L383.76874 41.753124Q386.675 37.065624 386.675 32.378124Q386.675 30.534374 386.26874 28.7375Q385.925 27.26875 385.33124 25.925Q384.95624 25.034374 383.76874 22.9875L385.01874 22.9875Q386.8625 25.440624 387.7375 27.909374Q388.4875 30.034374 388.4875 32.3625Q388.4875 35.003124 387.47186 37.471874Q386.47186 39.925 385.01874 41.753124Z" fill-rule="nonzero"/></svg>